<svg width="100%" viewBox="0 0 3350 3231" xmlns="http://www.w3.org/2000/svg" role="img" style="margin: 0px auto; background: transparent;   box-sizing: border-box;">
  <title style="fill:rgb(0, 0, 0);stroke:none;color:rgb(255, 255, 255);stroke-width:1px;stroke-linecap:butt;stroke-linejoin:miter;opacity:1;font-family:&#34;Anthropic Sans&#34;, -apple-system, &#34;system-ui&#34;, &#34;Segoe UI&#34;, sans-serif;font-size:16px;font-weight:400;text-anchor:start;dominant-baseline:auto">Logo</title>
  <desc style="fill:rgb(0, 0, 0);stroke:none;color:rgb(255, 255, 255);stroke-width:1px;stroke-linecap:butt;stroke-linejoin:miter;opacity:1;font-family:&#34;Anthropic Sans&#34;, -apple-system, &#34;system-ui&#34;, &#34;Segoe UI&#34;, sans-serif;font-size:16px;font-weight:400;text-anchor:start;dominant-baseline:auto">Logotipo en color azul oscuro</desc>
  <g transform="translate(-1080 -983)" fill="currentColor" fill-rule="evenodd" style="fill:currentColor;stroke:none;color:rgb(255, 255, 255);stroke-width:1px;stroke-linecap:butt;stroke-linejoin:miter;opacity:1;font-family:&#34;Anthropic Sans&#34;, -apple-system, &#34;system-ui&#34;, &#34;Segoe UI&#34;, sans-serif;font-size:16px;font-weight:400;text-anchor:start;dominant-baseline:auto">
    <path d="M 3340 1120 L 2971 1120 L 2820 1676 Z M 1160 1120 L 1680 1676 L 1530 1121 Z M 2071 1064 L 1296 3221 L 2401 3221 L 2594 2507 L 2561 2559 L 2518 2611 L 2479 2649 L 2423 2692 L 2367 2724 L 2300 2750 L 2250 2762 L 2190 2769 L 2137 2768 L 2092 2757 L 2058 2741 L 2018 2711 L 1982 2670 L 1952 2618 L 1934 2569 L 1923 2508 L 1923 2432 L 1935 2342 L 1963 2208 L 2003 2048 L 2046 1897 L 2092 1750 L 2250 1296 L 2313 1485 L 2918 3221 L 3205 3221 L 2425 1063 Z" style="fill:currentColor;stroke:none;color:rgb(255, 255, 255);stroke-width:1px;stroke-linecap:butt;stroke-linejoin:miter;opacity:1;font-family:&#34;Anthropic Sans&#34;, -apple-system, &#34;system-ui&#34;, &#34;Segoe UI&#34;, sans-serif;font-size:16px;font-weight:400;text-anchor:start;dominant-baseline:auto"></path>
  </g>
</svg>